<svg width="32" height="32" viewBox="0 0 32 32" fill="none" xmlns="http://www.w3.org/2000/svg">
<path fill-rule="evenodd" clip-rule="evenodd" d="M2.66675 10.667C2.66675 6.89575 2.66675 5.01014 3.83832 3.83857C5.00989 2.66699 6.89551 2.66699 10.6667 2.66699H21.3334C25.1047 2.66699 26.9903 2.66699 28.1618 3.83857C29.3334 5.01014 29.3334 6.89576 29.3334 10.667V21.3337C29.3334 25.1049 29.3334 26.9905 28.1618 28.1621C26.9903 29.3337 25.1047 29.3337 21.3334 29.3337H10.6667C6.89551 29.3337 5.00989 29.3337 3.83832 28.1621C2.66675 26.9905 2.66675 25.1049 2.66675 21.3337V10.667ZM10.5212 22.1935C12.093 20.9874 14.0189 20.3337 16.0001 20.3337C17.9813 20.3337 19.9071 20.9874 21.4789 22.1935C23.0507 23.3996 24.1806 25.0906 24.6934 27.0043C24.8364 27.5378 24.5198 28.0861 23.9863 28.229C23.4528 28.372 22.9045 28.0554 22.7616 27.5219C22.3627 26.0335 21.4839 24.7183 20.2614 23.7802C19.0389 22.8421 17.541 22.3337 16.0001 22.3337C14.4591 22.3337 12.9613 22.8421 11.7388 23.7802C10.5162 24.7183 9.63743 26.0335 9.2386 27.5219C9.09566 28.0554 8.54732 28.372 8.01386 28.229C7.48039 28.0861 7.16381 27.5378 7.30675 27.0043C7.81952 25.0906 8.94943 23.3996 10.5212 22.1935ZM13.0001 12.0003C13.0001 10.3435 14.3432 9.00033 16.0001 9.00033C17.6569 9.00033 19.0001 10.3435 19.0001 12.0003C19.0001 13.6572 17.6569 15.0003 16.0001 15.0003C14.3432 15.0003 13.0001 13.6572 13.0001 12.0003ZM16.0001 7.00033C13.2387 7.00033 11.0001 9.2389 11.0001 12.0003C11.0001 14.7617 13.2387 17.0003 16.0001 17.0003C18.7615 17.0003 21.0001 14.7617 21.0001 12.0003C21.0001 9.2389 18.7615 7.00033 16.0001 7.00033Z" fill="#F0F0F4"/>
</svg>
