<svg width="25" height="24" viewBox="0 0 25 24" fill="none" xmlns="http://www.w3.org/2000/svg">
<path d="M18.7008 17.8252C17.5908 17.8252 16.7008 18.7152 16.7008 19.8252C16.7008 20.3556 16.9115 20.8643 17.2866 21.2394C17.6617 21.6145 18.1704 21.8252 18.7008 21.8252C19.2312 21.8252 19.7399 21.6145 20.115 21.2394C20.4901 20.8643 20.7008 20.3556 20.7008 19.8252C20.7008 18.7152 19.8008 17.8252 18.7008 17.8252ZM2.70081 1.8252V3.8252H4.70081L8.30081 11.4152L6.94081 13.8652C6.79081 14.1452 6.70081 14.4752 6.70081 14.8252C6.70081 15.3556 6.91152 15.8643 7.28659 16.2394C7.66166 16.6145 8.17037 16.8252 8.70081 16.8252H20.7008V14.8252L9.12081 14.8252C9.0545 14.8252 8.99091 14.7989 8.94403 14.752C8.89714 14.7051 8.87081 14.6415 8.87081 14.5752C8.87081 14.5252 8.88081 14.4852 8.90081 14.4552L9.80081 12.8252H17.2508C18.0008 12.8252 18.6608 12.4052 19.0008 11.7952L22.5808 5.3252C22.6508 5.1652 22.7008 4.9952 22.7008 4.8252C22.7008 4.55998 22.5954 4.30563 22.4079 4.11809C22.2204 3.93055 21.966 3.8252 21.7008 3.8252L6.91081 3.8252L5.97081 1.8252M8.70081 17.8252C7.59081 17.8252 6.70081 18.7152 6.70081 19.8252C6.70081 20.3556 6.91152 20.8643 7.28659 21.2394C7.66166 21.6145 8.17037 21.8252 8.70081 21.8252C9.23124 21.8252 9.73995 21.6145 10.115 21.2394C10.4901 20.8643 10.7008 20.3556 10.7008 19.8252C10.7008 18.7152 9.80081 17.8252 8.70081 17.8252Z" fill="white"/>
</svg>
