<svg  viewBox="0 0 44 44" fill="none" xmlns="http://www.w3.org/2000/svg">
<g clip-path="url(#clip0_2198_19805)">
<path d="M7.42511 22.9969L22.6999 37.6197C22.9548 37.8638 23.2934 38 23.6455 38C23.9977 38 24.3363 37.8638 24.5911 37.6197L24.6076 37.6032C24.7316 37.4848 24.8303 37.3424 24.8977 37.1845C24.9652 37.0266 25 36.8566 25 36.6848C25 36.513 24.9652 36.3429 24.8977 36.1851C24.8303 36.0272 24.7316 35.8847 24.6076 35.7664L10.2235 21.9972L24.6076 8.23362C24.7316 8.11528 24.8303 7.97283 24.8978 7.81495C24.9652 7.65706 25 7.48704 25 7.31522C25 7.1434 24.9652 6.97338 24.8978 6.81549C24.8303 6.6576 24.7316 6.51516 24.6076 6.39682L24.5911 6.38029C24.3363 6.13618 23.9977 6 23.6455 6C23.2934 6 22.9548 6.13618 22.6999 6.38029L7.42511 21.0031C7.29077 21.1317 7.18383 21.2864 7.11076 21.4577C7.03768 21.6291 7 21.8136 7 22C7 22.1864 7.03768 22.3709 7.11076 22.5423C7.18383 22.7136 7.29077 22.8683 7.42511 22.9969Z" fill="white"/>
</g>
<defs>
<clipPath id="clip0_2198_19805">
<rect width="44" height="44" fill="white" transform="translate(0 44) rotate(-90)"/>
</clipPath>
</defs>
</svg>
