<svg width="24" height="24" viewBox="0 0 24 24" fill="none" xmlns="http://www.w3.org/2000/svg">
<path d="M7.99927 12.8501C6.13927 12.8501 4.58927 14.1301 4.13927 15.8501H1.99927V17.8501H4.13927C4.58927 19.5701 6.13927 20.8501 7.99927 20.8501C9.85927 20.8501 11.4093 19.5701 11.8593 17.8501H21.9993V15.8501H11.8593C11.4093 14.1301 9.85927 12.8501 7.99927 12.8501ZM7.99927 18.8501C6.89927 18.8501 5.99927 17.9501 5.99927 16.8501C5.99927 15.7501 6.89927 14.8501 7.99927 14.8501C9.09927 14.8501 9.99927 15.7501 9.99927 16.8501C9.99927 17.9501 9.09927 18.8501 7.99927 18.8501ZM19.8593 5.8501C19.4093 4.1301 17.8593 2.8501 15.9993 2.8501C14.1393 2.8501 12.5893 4.1301 12.1393 5.8501H1.99927V7.8501H12.1393C12.5893 9.5701 14.1393 10.8501 15.9993 10.8501C17.8593 10.8501 19.4093 9.5701 19.8593 7.8501H21.9993V5.8501H19.8593ZM15.9993 8.8501C14.8993 8.8501 13.9993 7.9501 13.9993 6.8501C13.9993 5.7501 14.8993 4.8501 15.9993 4.8501C17.0993 4.8501 17.9993 5.7501 17.9993 6.8501C17.9993 7.9501 17.0993 8.8501 15.9993 8.8501Z" fill="#131315"/>
</svg>
