<svg viewBox="0 0 24 24" fill="transparent" xmlns="http://www.w3.org/2000/svg">
<path fill-rule="evenodd" clip-rule="evenodd" d="M3.80638 6.20562C4.70651 5.30576 5.92719 4.80024 7.19998 4.80024C8.47276 4.80024 9.69344 5.30576 10.5936 6.20562L12 7.61082L13.4064 6.20562C13.8492 5.74717 14.3788 5.38149 14.9644 5.12993C15.5501 4.87837 16.1799 4.74595 16.8172 4.74042C17.4546 4.73488 18.0866 4.85633 18.6766 5.09767C19.2665 5.33902 19.8024 5.69544 20.2531 6.14612C20.7038 6.59681 21.0602 7.13274 21.3015 7.72264C21.5429 8.31254 21.6643 8.9446 21.6588 9.58194C21.6532 10.2193 21.5208 10.8491 21.2693 11.4348C21.0177 12.0204 20.652 12.55 20.1936 12.9928L12 21.1876L3.80638 12.9928C2.90651 12.0927 2.401 10.872 2.401 9.59922C2.401 8.32643 2.90651 7.10575 3.80638 6.20562V6.20562Z" stroke="white" stroke-width="2" stroke-linejoin="round"/>
</svg>
