<svg width="25" height="25" viewBox="0 0 25 25" fill="none" xmlns="http://www.w3.org/2000/svg">
<path d="M9.0803 0.368896C11.4445 0.368896 13.7119 1.30808 15.3837 2.97983C17.0554 4.65158 17.9946 6.91897 17.9946 9.28318C17.9946 11.4912 17.1854 13.5209 15.8552 15.0843L16.2254 15.4546H17.3089L24.166 22.3118L22.1089 24.3689L15.2517 17.5118V16.4283L14.8814 16.058C13.318 17.3883 11.2883 18.1975 9.0803 18.1975C6.71609 18.1975 4.4487 17.2583 2.77695 15.5865C1.1052 13.9148 0.166016 11.6474 0.166016 9.28318C0.166016 6.91897 1.1052 4.65158 2.77695 2.97983C4.4487 1.30808 6.71609 0.368896 9.0803 0.368896ZM9.0803 3.11175C5.65173 3.11175 2.90887 5.85461 2.90887 9.28318C2.90887 12.7118 5.65173 15.4546 9.0803 15.4546C12.5089 15.4546 15.2517 12.7118 15.2517 9.28318C15.2517 5.85461 12.5089 3.11175 9.0803 3.11175Z" fill="white"/>
</svg>
