<svg viewBox="0 0 24 24" xmlns="http://www.w3.org/2000/svg">
<path d="M10.2853 3.20007C12.0585 3.20007 13.759 3.90446 15.0128 5.15827C16.2667 6.41209 16.971 8.11263 16.971 9.88579C16.971 11.5418 16.3642 13.0641 15.3665 14.2366L15.6442 14.5144H16.4568L21.5996 19.6572L20.0568 21.2001L14.9139 16.0572V15.2446L14.6362 14.9669C13.4636 15.9646 11.9413 16.5715 10.2853 16.5715C8.51216 16.5715 6.81162 15.8671 5.55781 14.6133C4.30399 13.3595 3.59961 11.6589 3.59961 9.88579C3.59961 8.11263 4.30399 6.41209 5.55781 5.15827C6.81162 3.90446 8.51216 3.20007 10.2853 3.20007ZM10.2853 5.25722C7.7139 5.25722 5.65675 7.31436 5.65675 9.88579C5.65675 12.4572 7.7139 14.5144 10.2853 14.5144C12.8568 14.5144 14.9139 12.4572 14.9139 9.88579C14.9139 7.31436 12.8568 5.25722 10.2853 5.25722Z"/>
</svg>
